<mxfile host="Electron" modified="2024-02-22T20:43:13.859Z" agent="Mozilla/5.0 (X11; Linux x86_64) AppleWebKit/537.36 (KHTML, like Gecko) draw.io/22.0.3 Chrome/118.0.5993.159 Electron/27.3.2 Safari/537.36" etag="EThLOhu5iNEr-1e8_1bJ" version="22.0.3" type="device">
  <diagram name="Page-1" id="qHODC6wVwx0QdkXmMvWe">
    <mxGraphModel dx="1434" dy="849" grid="1" gridSize="10" guides="1" tooltips="1" connect="1" arrows="1" fold="1" page="1" pageScale="1" pageWidth="850" pageHeight="1100" math="0" shadow="0">
      <root>
        <mxCell id="0" />
        <mxCell id="1" parent="0" />
        <mxCell id="HbMG0yRE9k60iJRPw7qJ-31" style="edgeStyle=orthogonalEdgeStyle;rounded=0;orthogonalLoop=1;jettySize=auto;html=1;endArrow=none;endFill=0;" edge="1" parent="1" source="HbMG0yRE9k60iJRPw7qJ-1" target="HbMG0yRE9k60iJRPw7qJ-6">
          <mxGeometry relative="1" as="geometry" />
        </mxCell>
        <mxCell id="HbMG0yRE9k60iJRPw7qJ-1" value="" style="ellipse;whiteSpace=wrap;html=1;aspect=fixed;" vertex="1" parent="1">
          <mxGeometry x="120" y="120" width="80" height="80" as="geometry" />
        </mxCell>
        <mxCell id="HbMG0yRE9k60iJRPw7qJ-46" style="edgeStyle=orthogonalEdgeStyle;rounded=0;orthogonalLoop=1;jettySize=auto;html=1;endArrow=none;endFill=0;" edge="1" parent="1" source="HbMG0yRE9k60iJRPw7qJ-2" target="HbMG0yRE9k60iJRPw7qJ-1">
          <mxGeometry relative="1" as="geometry" />
        </mxCell>
        <mxCell id="HbMG0yRE9k60iJRPw7qJ-2" value="" style="ellipse;whiteSpace=wrap;html=1;aspect=fixed;" vertex="1" parent="1">
          <mxGeometry x="240" y="120" width="80" height="80" as="geometry" />
        </mxCell>
        <mxCell id="HbMG0yRE9k60iJRPw7qJ-45" style="edgeStyle=orthogonalEdgeStyle;rounded=0;orthogonalLoop=1;jettySize=auto;html=1;endArrow=none;endFill=0;" edge="1" parent="1" source="HbMG0yRE9k60iJRPw7qJ-3" target="HbMG0yRE9k60iJRPw7qJ-2">
          <mxGeometry relative="1" as="geometry" />
        </mxCell>
        <mxCell id="HbMG0yRE9k60iJRPw7qJ-3" value="" style="ellipse;whiteSpace=wrap;html=1;aspect=fixed;" vertex="1" parent="1">
          <mxGeometry x="360" y="120" width="80" height="80" as="geometry" />
        </mxCell>
        <mxCell id="HbMG0yRE9k60iJRPw7qJ-44" style="edgeStyle=orthogonalEdgeStyle;rounded=0;orthogonalLoop=1;jettySize=auto;html=1;endArrow=none;endFill=0;" edge="1" parent="1" source="HbMG0yRE9k60iJRPw7qJ-4" target="HbMG0yRE9k60iJRPw7qJ-3">
          <mxGeometry relative="1" as="geometry" />
        </mxCell>
        <mxCell id="HbMG0yRE9k60iJRPw7qJ-4" value="" style="ellipse;whiteSpace=wrap;html=1;aspect=fixed;" vertex="1" parent="1">
          <mxGeometry x="480" y="120" width="80" height="80" as="geometry" />
        </mxCell>
        <mxCell id="HbMG0yRE9k60iJRPw7qJ-43" style="edgeStyle=orthogonalEdgeStyle;rounded=0;orthogonalLoop=1;jettySize=auto;html=1;endArrow=none;endFill=0;" edge="1" parent="1" source="HbMG0yRE9k60iJRPw7qJ-5" target="HbMG0yRE9k60iJRPw7qJ-4">
          <mxGeometry relative="1" as="geometry" />
        </mxCell>
        <mxCell id="HbMG0yRE9k60iJRPw7qJ-5" value="" style="ellipse;whiteSpace=wrap;html=1;aspect=fixed;" vertex="1" parent="1">
          <mxGeometry x="600" y="120" width="80" height="80" as="geometry" />
        </mxCell>
        <mxCell id="HbMG0yRE9k60iJRPw7qJ-32" style="edgeStyle=orthogonalEdgeStyle;rounded=0;orthogonalLoop=1;jettySize=auto;html=1;endArrow=none;endFill=0;" edge="1" parent="1" source="HbMG0yRE9k60iJRPw7qJ-6" target="HbMG0yRE9k60iJRPw7qJ-16">
          <mxGeometry relative="1" as="geometry" />
        </mxCell>
        <mxCell id="HbMG0yRE9k60iJRPw7qJ-47" style="edgeStyle=orthogonalEdgeStyle;rounded=0;orthogonalLoop=1;jettySize=auto;html=1;endArrow=none;endFill=0;" edge="1" parent="1" source="HbMG0yRE9k60iJRPw7qJ-6" target="HbMG0yRE9k60iJRPw7qJ-7">
          <mxGeometry relative="1" as="geometry" />
        </mxCell>
        <mxCell id="HbMG0yRE9k60iJRPw7qJ-6" value="" style="ellipse;whiteSpace=wrap;html=1;aspect=fixed;" vertex="1" parent="1">
          <mxGeometry x="120" y="240" width="80" height="80" as="geometry" />
        </mxCell>
        <mxCell id="HbMG0yRE9k60iJRPw7qJ-48" style="edgeStyle=orthogonalEdgeStyle;rounded=0;orthogonalLoop=1;jettySize=auto;html=1;endArrow=none;endFill=0;" edge="1" parent="1" source="HbMG0yRE9k60iJRPw7qJ-7" target="HbMG0yRE9k60iJRPw7qJ-8">
          <mxGeometry relative="1" as="geometry" />
        </mxCell>
        <mxCell id="HbMG0yRE9k60iJRPw7qJ-65" style="edgeStyle=orthogonalEdgeStyle;rounded=0;orthogonalLoop=1;jettySize=auto;html=1;endArrow=none;endFill=0;" edge="1" parent="1" source="HbMG0yRE9k60iJRPw7qJ-7" target="HbMG0yRE9k60iJRPw7qJ-2">
          <mxGeometry relative="1" as="geometry" />
        </mxCell>
        <mxCell id="HbMG0yRE9k60iJRPw7qJ-7" value="" style="ellipse;whiteSpace=wrap;html=1;aspect=fixed;" vertex="1" parent="1">
          <mxGeometry x="240" y="240" width="80" height="80" as="geometry" />
        </mxCell>
        <mxCell id="HbMG0yRE9k60iJRPw7qJ-49" style="edgeStyle=orthogonalEdgeStyle;rounded=0;orthogonalLoop=1;jettySize=auto;html=1;endArrow=none;endFill=0;" edge="1" parent="1" source="HbMG0yRE9k60iJRPw7qJ-8" target="HbMG0yRE9k60iJRPw7qJ-9">
          <mxGeometry relative="1" as="geometry" />
        </mxCell>
        <mxCell id="HbMG0yRE9k60iJRPw7qJ-66" style="edgeStyle=orthogonalEdgeStyle;rounded=0;orthogonalLoop=1;jettySize=auto;html=1;endArrow=none;endFill=0;" edge="1" parent="1" source="HbMG0yRE9k60iJRPw7qJ-8" target="HbMG0yRE9k60iJRPw7qJ-3">
          <mxGeometry relative="1" as="geometry" />
        </mxCell>
        <mxCell id="HbMG0yRE9k60iJRPw7qJ-8" value="" style="ellipse;whiteSpace=wrap;html=1;aspect=fixed;" vertex="1" parent="1">
          <mxGeometry x="360" y="240" width="80" height="80" as="geometry" />
        </mxCell>
        <mxCell id="HbMG0yRE9k60iJRPw7qJ-50" style="edgeStyle=orthogonalEdgeStyle;rounded=0;orthogonalLoop=1;jettySize=auto;html=1;endArrow=none;endFill=0;" edge="1" parent="1" source="HbMG0yRE9k60iJRPw7qJ-9" target="HbMG0yRE9k60iJRPw7qJ-10">
          <mxGeometry relative="1" as="geometry" />
        </mxCell>
        <mxCell id="HbMG0yRE9k60iJRPw7qJ-71" style="edgeStyle=orthogonalEdgeStyle;rounded=0;orthogonalLoop=1;jettySize=auto;html=1;endArrow=none;endFill=0;" edge="1" parent="1" source="HbMG0yRE9k60iJRPw7qJ-9" target="HbMG0yRE9k60iJRPw7qJ-4">
          <mxGeometry relative="1" as="geometry" />
        </mxCell>
        <mxCell id="HbMG0yRE9k60iJRPw7qJ-9" value="" style="ellipse;whiteSpace=wrap;html=1;aspect=fixed;" vertex="1" parent="1">
          <mxGeometry x="480" y="240" width="80" height="80" as="geometry" />
        </mxCell>
        <mxCell id="HbMG0yRE9k60iJRPw7qJ-42" style="edgeStyle=orthogonalEdgeStyle;rounded=0;orthogonalLoop=1;jettySize=auto;html=1;endArrow=none;endFill=0;" edge="1" parent="1" source="HbMG0yRE9k60iJRPw7qJ-10" target="HbMG0yRE9k60iJRPw7qJ-5">
          <mxGeometry relative="1" as="geometry" />
        </mxCell>
        <mxCell id="HbMG0yRE9k60iJRPw7qJ-10" value="" style="ellipse;whiteSpace=wrap;html=1;aspect=fixed;" vertex="1" parent="1">
          <mxGeometry x="600" y="240" width="80" height="80" as="geometry" />
        </mxCell>
        <mxCell id="HbMG0yRE9k60iJRPw7qJ-33" style="edgeStyle=orthogonalEdgeStyle;rounded=0;orthogonalLoop=1;jettySize=auto;html=1;entryX=0.5;entryY=0;entryDx=0;entryDy=0;endArrow=none;endFill=0;" edge="1" parent="1" source="HbMG0yRE9k60iJRPw7qJ-16" target="HbMG0yRE9k60iJRPw7qJ-21">
          <mxGeometry relative="1" as="geometry" />
        </mxCell>
        <mxCell id="HbMG0yRE9k60iJRPw7qJ-16" value="" style="ellipse;whiteSpace=wrap;html=1;aspect=fixed;" vertex="1" parent="1">
          <mxGeometry x="120" y="360" width="80" height="80" as="geometry" />
        </mxCell>
        <mxCell id="HbMG0yRE9k60iJRPw7qJ-55" style="edgeStyle=orthogonalEdgeStyle;rounded=0;orthogonalLoop=1;jettySize=auto;html=1;endArrow=none;endFill=0;" edge="1" parent="1" source="HbMG0yRE9k60iJRPw7qJ-17" target="HbMG0yRE9k60iJRPw7qJ-16">
          <mxGeometry relative="1" as="geometry" />
        </mxCell>
        <mxCell id="HbMG0yRE9k60iJRPw7qJ-64" style="edgeStyle=orthogonalEdgeStyle;rounded=0;orthogonalLoop=1;jettySize=auto;html=1;endArrow=none;endFill=0;" edge="1" parent="1" source="HbMG0yRE9k60iJRPw7qJ-17" target="HbMG0yRE9k60iJRPw7qJ-7">
          <mxGeometry relative="1" as="geometry" />
        </mxCell>
        <mxCell id="HbMG0yRE9k60iJRPw7qJ-17" value="" style="ellipse;whiteSpace=wrap;html=1;aspect=fixed;" vertex="1" parent="1">
          <mxGeometry x="240" y="360" width="80" height="80" as="geometry" />
        </mxCell>
        <mxCell id="HbMG0yRE9k60iJRPw7qJ-54" style="edgeStyle=orthogonalEdgeStyle;rounded=0;orthogonalLoop=1;jettySize=auto;html=1;endArrow=none;endFill=0;" edge="1" parent="1" source="HbMG0yRE9k60iJRPw7qJ-18" target="HbMG0yRE9k60iJRPw7qJ-17">
          <mxGeometry relative="1" as="geometry" />
        </mxCell>
        <mxCell id="HbMG0yRE9k60iJRPw7qJ-67" style="edgeStyle=orthogonalEdgeStyle;rounded=0;orthogonalLoop=1;jettySize=auto;html=1;endArrow=none;endFill=0;" edge="1" parent="1" source="HbMG0yRE9k60iJRPw7qJ-18" target="HbMG0yRE9k60iJRPw7qJ-8">
          <mxGeometry relative="1" as="geometry" />
        </mxCell>
        <mxCell id="HbMG0yRE9k60iJRPw7qJ-18" value="" style="ellipse;whiteSpace=wrap;html=1;aspect=fixed;" vertex="1" parent="1">
          <mxGeometry x="360" y="360" width="80" height="80" as="geometry" />
        </mxCell>
        <mxCell id="HbMG0yRE9k60iJRPw7qJ-53" style="edgeStyle=orthogonalEdgeStyle;rounded=0;orthogonalLoop=1;jettySize=auto;html=1;endArrow=none;endFill=0;" edge="1" parent="1" source="HbMG0yRE9k60iJRPw7qJ-19" target="HbMG0yRE9k60iJRPw7qJ-18">
          <mxGeometry relative="1" as="geometry" />
        </mxCell>
        <mxCell id="HbMG0yRE9k60iJRPw7qJ-70" style="edgeStyle=orthogonalEdgeStyle;rounded=0;orthogonalLoop=1;jettySize=auto;html=1;endArrow=none;endFill=0;" edge="1" parent="1" source="HbMG0yRE9k60iJRPw7qJ-19" target="HbMG0yRE9k60iJRPw7qJ-9">
          <mxGeometry relative="1" as="geometry" />
        </mxCell>
        <mxCell id="HbMG0yRE9k60iJRPw7qJ-19" value="" style="ellipse;whiteSpace=wrap;html=1;aspect=fixed;" vertex="1" parent="1">
          <mxGeometry x="480" y="360" width="80" height="80" as="geometry" />
        </mxCell>
        <mxCell id="HbMG0yRE9k60iJRPw7qJ-41" style="edgeStyle=orthogonalEdgeStyle;rounded=0;orthogonalLoop=1;jettySize=auto;html=1;endArrow=none;endFill=0;" edge="1" parent="1" source="HbMG0yRE9k60iJRPw7qJ-20" target="HbMG0yRE9k60iJRPw7qJ-10">
          <mxGeometry relative="1" as="geometry" />
        </mxCell>
        <mxCell id="HbMG0yRE9k60iJRPw7qJ-52" style="edgeStyle=orthogonalEdgeStyle;rounded=0;orthogonalLoop=1;jettySize=auto;html=1;endArrow=none;endFill=0;" edge="1" parent="1" source="HbMG0yRE9k60iJRPw7qJ-20" target="HbMG0yRE9k60iJRPw7qJ-19">
          <mxGeometry relative="1" as="geometry" />
        </mxCell>
        <mxCell id="HbMG0yRE9k60iJRPw7qJ-20" value="" style="ellipse;whiteSpace=wrap;html=1;aspect=fixed;" vertex="1" parent="1">
          <mxGeometry x="600" y="360" width="80" height="80" as="geometry" />
        </mxCell>
        <mxCell id="HbMG0yRE9k60iJRPw7qJ-34" style="edgeStyle=orthogonalEdgeStyle;rounded=0;orthogonalLoop=1;jettySize=auto;html=1;endArrow=none;endFill=0;" edge="1" parent="1" source="HbMG0yRE9k60iJRPw7qJ-21" target="HbMG0yRE9k60iJRPw7qJ-26">
          <mxGeometry relative="1" as="geometry" />
        </mxCell>
        <mxCell id="HbMG0yRE9k60iJRPw7qJ-56" style="edgeStyle=orthogonalEdgeStyle;rounded=0;orthogonalLoop=1;jettySize=auto;html=1;endArrow=none;endFill=0;" edge="1" parent="1" source="HbMG0yRE9k60iJRPw7qJ-21" target="HbMG0yRE9k60iJRPw7qJ-22">
          <mxGeometry relative="1" as="geometry" />
        </mxCell>
        <mxCell id="HbMG0yRE9k60iJRPw7qJ-21" value="" style="ellipse;whiteSpace=wrap;html=1;aspect=fixed;" vertex="1" parent="1">
          <mxGeometry x="120" y="480" width="80" height="80" as="geometry" />
        </mxCell>
        <mxCell id="HbMG0yRE9k60iJRPw7qJ-57" style="edgeStyle=orthogonalEdgeStyle;rounded=0;orthogonalLoop=1;jettySize=auto;html=1;endArrow=none;endFill=0;" edge="1" parent="1" source="HbMG0yRE9k60iJRPw7qJ-22" target="HbMG0yRE9k60iJRPw7qJ-23">
          <mxGeometry relative="1" as="geometry" />
        </mxCell>
        <mxCell id="HbMG0yRE9k60iJRPw7qJ-63" style="edgeStyle=orthogonalEdgeStyle;rounded=0;orthogonalLoop=1;jettySize=auto;html=1;endArrow=none;endFill=0;" edge="1" parent="1" source="HbMG0yRE9k60iJRPw7qJ-22" target="HbMG0yRE9k60iJRPw7qJ-17">
          <mxGeometry relative="1" as="geometry" />
        </mxCell>
        <mxCell id="HbMG0yRE9k60iJRPw7qJ-22" value="" style="ellipse;whiteSpace=wrap;html=1;aspect=fixed;" vertex="1" parent="1">
          <mxGeometry x="240" y="480" width="80" height="80" as="geometry" />
        </mxCell>
        <mxCell id="HbMG0yRE9k60iJRPw7qJ-58" style="edgeStyle=orthogonalEdgeStyle;rounded=0;orthogonalLoop=1;jettySize=auto;html=1;entryX=0;entryY=0.5;entryDx=0;entryDy=0;endArrow=none;endFill=0;" edge="1" parent="1" source="HbMG0yRE9k60iJRPw7qJ-23" target="HbMG0yRE9k60iJRPw7qJ-24">
          <mxGeometry relative="1" as="geometry" />
        </mxCell>
        <mxCell id="HbMG0yRE9k60iJRPw7qJ-68" style="edgeStyle=orthogonalEdgeStyle;rounded=0;orthogonalLoop=1;jettySize=auto;html=1;endArrow=none;endFill=0;" edge="1" parent="1" source="HbMG0yRE9k60iJRPw7qJ-23" target="HbMG0yRE9k60iJRPw7qJ-18">
          <mxGeometry relative="1" as="geometry" />
        </mxCell>
        <mxCell id="HbMG0yRE9k60iJRPw7qJ-23" value="" style="ellipse;whiteSpace=wrap;html=1;aspect=fixed;" vertex="1" parent="1">
          <mxGeometry x="360" y="480" width="80" height="80" as="geometry" />
        </mxCell>
        <mxCell id="HbMG0yRE9k60iJRPw7qJ-59" style="edgeStyle=orthogonalEdgeStyle;rounded=0;orthogonalLoop=1;jettySize=auto;html=1;endArrow=none;endFill=0;" edge="1" parent="1" source="HbMG0yRE9k60iJRPw7qJ-24" target="HbMG0yRE9k60iJRPw7qJ-25">
          <mxGeometry relative="1" as="geometry" />
        </mxCell>
        <mxCell id="HbMG0yRE9k60iJRPw7qJ-69" style="edgeStyle=orthogonalEdgeStyle;rounded=0;orthogonalLoop=1;jettySize=auto;html=1;endArrow=none;endFill=0;" edge="1" parent="1" source="HbMG0yRE9k60iJRPw7qJ-24" target="HbMG0yRE9k60iJRPw7qJ-19">
          <mxGeometry relative="1" as="geometry" />
        </mxCell>
        <mxCell id="HbMG0yRE9k60iJRPw7qJ-24" value="" style="ellipse;whiteSpace=wrap;html=1;aspect=fixed;" vertex="1" parent="1">
          <mxGeometry x="480" y="480" width="80" height="80" as="geometry" />
        </mxCell>
        <mxCell id="HbMG0yRE9k60iJRPw7qJ-40" style="edgeStyle=orthogonalEdgeStyle;rounded=0;orthogonalLoop=1;jettySize=auto;html=1;endArrow=none;endFill=0;" edge="1" parent="1" source="HbMG0yRE9k60iJRPw7qJ-25" target="HbMG0yRE9k60iJRPw7qJ-20">
          <mxGeometry relative="1" as="geometry" />
        </mxCell>
        <mxCell id="HbMG0yRE9k60iJRPw7qJ-25" value="" style="ellipse;whiteSpace=wrap;html=1;aspect=fixed;" vertex="1" parent="1">
          <mxGeometry x="600" y="480" width="80" height="80" as="geometry" />
        </mxCell>
        <mxCell id="HbMG0yRE9k60iJRPw7qJ-35" style="edgeStyle=orthogonalEdgeStyle;rounded=0;orthogonalLoop=1;jettySize=auto;html=1;endArrow=none;endFill=0;" edge="1" parent="1" source="HbMG0yRE9k60iJRPw7qJ-26" target="HbMG0yRE9k60iJRPw7qJ-27">
          <mxGeometry relative="1" as="geometry" />
        </mxCell>
        <mxCell id="HbMG0yRE9k60iJRPw7qJ-26" value="" style="ellipse;whiteSpace=wrap;html=1;aspect=fixed;" vertex="1" parent="1">
          <mxGeometry x="120" y="600" width="80" height="80" as="geometry" />
        </mxCell>
        <mxCell id="HbMG0yRE9k60iJRPw7qJ-36" style="edgeStyle=orthogonalEdgeStyle;rounded=0;orthogonalLoop=1;jettySize=auto;html=1;endArrow=none;endFill=0;" edge="1" parent="1" source="HbMG0yRE9k60iJRPw7qJ-27" target="HbMG0yRE9k60iJRPw7qJ-28">
          <mxGeometry relative="1" as="geometry" />
        </mxCell>
        <mxCell id="HbMG0yRE9k60iJRPw7qJ-62" style="edgeStyle=orthogonalEdgeStyle;rounded=0;orthogonalLoop=1;jettySize=auto;html=1;endArrow=none;endFill=0;" edge="1" parent="1" source="HbMG0yRE9k60iJRPw7qJ-27" target="HbMG0yRE9k60iJRPw7qJ-22">
          <mxGeometry relative="1" as="geometry" />
        </mxCell>
        <mxCell id="HbMG0yRE9k60iJRPw7qJ-27" value="" style="ellipse;whiteSpace=wrap;html=1;aspect=fixed;" vertex="1" parent="1">
          <mxGeometry x="240" y="600" width="80" height="80" as="geometry" />
        </mxCell>
        <mxCell id="HbMG0yRE9k60iJRPw7qJ-37" style="edgeStyle=orthogonalEdgeStyle;rounded=0;orthogonalLoop=1;jettySize=auto;html=1;endArrow=none;endFill=0;" edge="1" parent="1" source="HbMG0yRE9k60iJRPw7qJ-28" target="HbMG0yRE9k60iJRPw7qJ-29">
          <mxGeometry relative="1" as="geometry" />
        </mxCell>
        <mxCell id="HbMG0yRE9k60iJRPw7qJ-61" style="edgeStyle=orthogonalEdgeStyle;rounded=0;orthogonalLoop=1;jettySize=auto;html=1;endArrow=none;endFill=0;" edge="1" parent="1" source="HbMG0yRE9k60iJRPw7qJ-28" target="HbMG0yRE9k60iJRPw7qJ-23">
          <mxGeometry relative="1" as="geometry" />
        </mxCell>
        <mxCell id="HbMG0yRE9k60iJRPw7qJ-28" value="" style="ellipse;whiteSpace=wrap;html=1;aspect=fixed;" vertex="1" parent="1">
          <mxGeometry x="360" y="600" width="80" height="80" as="geometry" />
        </mxCell>
        <mxCell id="HbMG0yRE9k60iJRPw7qJ-38" style="edgeStyle=orthogonalEdgeStyle;rounded=0;orthogonalLoop=1;jettySize=auto;html=1;endArrow=none;endFill=0;" edge="1" parent="1" source="HbMG0yRE9k60iJRPw7qJ-29" target="HbMG0yRE9k60iJRPw7qJ-30">
          <mxGeometry relative="1" as="geometry" />
        </mxCell>
        <mxCell id="HbMG0yRE9k60iJRPw7qJ-60" style="edgeStyle=orthogonalEdgeStyle;rounded=0;orthogonalLoop=1;jettySize=auto;html=1;endArrow=none;endFill=0;" edge="1" parent="1" source="HbMG0yRE9k60iJRPw7qJ-29" target="HbMG0yRE9k60iJRPw7qJ-24">
          <mxGeometry relative="1" as="geometry" />
        </mxCell>
        <mxCell id="HbMG0yRE9k60iJRPw7qJ-29" value="" style="ellipse;whiteSpace=wrap;html=1;aspect=fixed;" vertex="1" parent="1">
          <mxGeometry x="480" y="600" width="80" height="80" as="geometry" />
        </mxCell>
        <mxCell id="HbMG0yRE9k60iJRPw7qJ-39" style="edgeStyle=orthogonalEdgeStyle;rounded=0;orthogonalLoop=1;jettySize=auto;html=1;endArrow=none;endFill=0;" edge="1" parent="1" source="HbMG0yRE9k60iJRPw7qJ-30" target="HbMG0yRE9k60iJRPw7qJ-25">
          <mxGeometry relative="1" as="geometry" />
        </mxCell>
        <mxCell id="HbMG0yRE9k60iJRPw7qJ-30" value="" style="ellipse;whiteSpace=wrap;html=1;aspect=fixed;" vertex="1" parent="1">
          <mxGeometry x="600" y="600" width="80" height="80" as="geometry" />
        </mxCell>
        <mxCell id="HbMG0yRE9k60iJRPw7qJ-72" style="edgeStyle=orthogonalEdgeStyle;rounded=0;orthogonalLoop=1;jettySize=auto;html=1;endArrow=none;endFill=0;fontStyle=1;fontSize=22;" edge="1" parent="1" source="HbMG0yRE9k60iJRPw7qJ-73" target="HbMG0yRE9k60iJRPw7qJ-84">
          <mxGeometry relative="1" as="geometry" />
        </mxCell>
        <mxCell id="HbMG0yRE9k60iJRPw7qJ-73" value="0" style="ellipse;whiteSpace=wrap;html=1;aspect=fixed;fontStyle=1;fontSize=22;fillColor=#D5E8D4;strokeColor=#82b366;" vertex="1" parent="1">
          <mxGeometry x="740" y="120" width="80" height="80" as="geometry" />
        </mxCell>
        <mxCell id="HbMG0yRE9k60iJRPw7qJ-74" style="edgeStyle=orthogonalEdgeStyle;rounded=0;orthogonalLoop=1;jettySize=auto;html=1;endArrow=none;endFill=0;fontStyle=1;fontSize=22;" edge="1" parent="1" source="HbMG0yRE9k60iJRPw7qJ-75" target="HbMG0yRE9k60iJRPw7qJ-73">
          <mxGeometry relative="1" as="geometry" />
        </mxCell>
        <mxCell id="HbMG0yRE9k60iJRPw7qJ-75" value="1" style="ellipse;whiteSpace=wrap;html=1;aspect=fixed;fontStyle=1;fontSize=22;fillColor=#dae8fc;strokeColor=#6c8ebf;" vertex="1" parent="1">
          <mxGeometry x="860" y="120" width="80" height="80" as="geometry" />
        </mxCell>
        <mxCell id="HbMG0yRE9k60iJRPw7qJ-76" style="edgeStyle=orthogonalEdgeStyle;rounded=0;orthogonalLoop=1;jettySize=auto;html=1;endArrow=none;endFill=0;fontStyle=1;fontSize=22;" edge="1" parent="1" source="HbMG0yRE9k60iJRPw7qJ-77" target="HbMG0yRE9k60iJRPw7qJ-75">
          <mxGeometry relative="1" as="geometry" />
        </mxCell>
        <mxCell id="HbMG0yRE9k60iJRPw7qJ-77" value="2" style="ellipse;whiteSpace=wrap;html=1;aspect=fixed;fontStyle=1;fontSize=22;fillColor=#f8cecc;strokeColor=#b85450;" vertex="1" parent="1">
          <mxGeometry x="980" y="120" width="80" height="80" as="geometry" />
        </mxCell>
        <mxCell id="HbMG0yRE9k60iJRPw7qJ-78" style="edgeStyle=orthogonalEdgeStyle;rounded=0;orthogonalLoop=1;jettySize=auto;html=1;endArrow=none;endFill=0;fontStyle=1;fontSize=22;" edge="1" parent="1" source="HbMG0yRE9k60iJRPw7qJ-79" target="HbMG0yRE9k60iJRPw7qJ-77">
          <mxGeometry relative="1" as="geometry" />
        </mxCell>
        <mxCell id="HbMG0yRE9k60iJRPw7qJ-79" value="3" style="ellipse;whiteSpace=wrap;html=1;aspect=fixed;fontStyle=1;fontSize=22;fillColor=#dae8fc;strokeColor=#6c8ebf;" vertex="1" parent="1">
          <mxGeometry x="1100" y="120" width="80" height="80" as="geometry" />
        </mxCell>
        <mxCell id="HbMG0yRE9k60iJRPw7qJ-80" style="edgeStyle=orthogonalEdgeStyle;rounded=0;orthogonalLoop=1;jettySize=auto;html=1;endArrow=none;endFill=0;fontStyle=1;fontSize=22;" edge="1" parent="1" source="HbMG0yRE9k60iJRPw7qJ-81" target="HbMG0yRE9k60iJRPw7qJ-79">
          <mxGeometry relative="1" as="geometry" />
        </mxCell>
        <mxCell id="HbMG0yRE9k60iJRPw7qJ-81" value="4" style="ellipse;whiteSpace=wrap;html=1;aspect=fixed;fontStyle=1;fontSize=22;fillColor=#DAE8FC;strokeColor=#6c8ebf;" vertex="1" parent="1">
          <mxGeometry x="1220" y="120" width="80" height="80" as="geometry" />
        </mxCell>
        <mxCell id="HbMG0yRE9k60iJRPw7qJ-82" style="edgeStyle=orthogonalEdgeStyle;rounded=0;orthogonalLoop=1;jettySize=auto;html=1;endArrow=none;endFill=0;fontStyle=1;fontSize=22;" edge="1" parent="1" source="HbMG0yRE9k60iJRPw7qJ-84" target="HbMG0yRE9k60iJRPw7qJ-97">
          <mxGeometry relative="1" as="geometry" />
        </mxCell>
        <mxCell id="HbMG0yRE9k60iJRPw7qJ-83" style="edgeStyle=orthogonalEdgeStyle;rounded=0;orthogonalLoop=1;jettySize=auto;html=1;endArrow=none;endFill=0;fontStyle=1;fontSize=22;" edge="1" parent="1" source="HbMG0yRE9k60iJRPw7qJ-84" target="HbMG0yRE9k60iJRPw7qJ-87">
          <mxGeometry relative="1" as="geometry" />
        </mxCell>
        <mxCell id="HbMG0yRE9k60iJRPw7qJ-84" value="5" style="ellipse;whiteSpace=wrap;html=1;aspect=fixed;fontStyle=1;fontSize=22;fillColor=#dae8fc;strokeColor=#6c8ebf;" vertex="1" parent="1">
          <mxGeometry x="740" y="240" width="80" height="80" as="geometry" />
        </mxCell>
        <mxCell id="HbMG0yRE9k60iJRPw7qJ-85" style="edgeStyle=orthogonalEdgeStyle;rounded=0;orthogonalLoop=1;jettySize=auto;html=1;endArrow=none;endFill=0;fontStyle=1;fontSize=22;" edge="1" parent="1" source="HbMG0yRE9k60iJRPw7qJ-87" target="HbMG0yRE9k60iJRPw7qJ-90">
          <mxGeometry relative="1" as="geometry" />
        </mxCell>
        <mxCell id="HbMG0yRE9k60iJRPw7qJ-86" style="edgeStyle=orthogonalEdgeStyle;rounded=0;orthogonalLoop=1;jettySize=auto;html=1;endArrow=none;endFill=0;fontStyle=1;fontSize=22;" edge="1" parent="1" source="HbMG0yRE9k60iJRPw7qJ-87" target="HbMG0yRE9k60iJRPw7qJ-75">
          <mxGeometry relative="1" as="geometry" />
        </mxCell>
        <mxCell id="HbMG0yRE9k60iJRPw7qJ-87" value="6" style="ellipse;whiteSpace=wrap;html=1;aspect=fixed;fontStyle=1;fontSize=22;fillColor=#dae8fc;strokeColor=#6c8ebf;" vertex="1" parent="1">
          <mxGeometry x="860" y="240" width="80" height="80" as="geometry" />
        </mxCell>
        <mxCell id="HbMG0yRE9k60iJRPw7qJ-88" style="edgeStyle=orthogonalEdgeStyle;rounded=0;orthogonalLoop=1;jettySize=auto;html=1;endArrow=none;endFill=0;fontStyle=1;fontSize=22;" edge="1" parent="1" source="HbMG0yRE9k60iJRPw7qJ-90" target="HbMG0yRE9k60iJRPw7qJ-93">
          <mxGeometry relative="1" as="geometry" />
        </mxCell>
        <mxCell id="HbMG0yRE9k60iJRPw7qJ-89" style="edgeStyle=orthogonalEdgeStyle;rounded=0;orthogonalLoop=1;jettySize=auto;html=1;endArrow=none;endFill=0;fontStyle=1;fontSize=22;" edge="1" parent="1" source="HbMG0yRE9k60iJRPw7qJ-90" target="HbMG0yRE9k60iJRPw7qJ-77">
          <mxGeometry relative="1" as="geometry" />
        </mxCell>
        <mxCell id="HbMG0yRE9k60iJRPw7qJ-90" value="7" style="ellipse;whiteSpace=wrap;html=1;aspect=fixed;fontStyle=1;fontSize=22;fillColor=#f8cecc;strokeColor=#b85450;" vertex="1" parent="1">
          <mxGeometry x="980" y="240" width="80" height="80" as="geometry" />
        </mxCell>
        <mxCell id="HbMG0yRE9k60iJRPw7qJ-91" style="edgeStyle=orthogonalEdgeStyle;rounded=0;orthogonalLoop=1;jettySize=auto;html=1;endArrow=none;endFill=0;fontStyle=1;fontSize=22;" edge="1" parent="1" source="HbMG0yRE9k60iJRPw7qJ-93" target="HbMG0yRE9k60iJRPw7qJ-95">
          <mxGeometry relative="1" as="geometry" />
        </mxCell>
        <mxCell id="HbMG0yRE9k60iJRPw7qJ-92" style="edgeStyle=orthogonalEdgeStyle;rounded=0;orthogonalLoop=1;jettySize=auto;html=1;endArrow=none;endFill=0;fontStyle=1;fontSize=22;" edge="1" parent="1" source="HbMG0yRE9k60iJRPw7qJ-93" target="HbMG0yRE9k60iJRPw7qJ-79">
          <mxGeometry relative="1" as="geometry" />
        </mxCell>
        <mxCell id="HbMG0yRE9k60iJRPw7qJ-93" value="8" style="ellipse;whiteSpace=wrap;html=1;aspect=fixed;fontStyle=1;fontSize=22;fillColor=#dae8fc;strokeColor=#6c8ebf;" vertex="1" parent="1">
          <mxGeometry x="1100" y="240" width="80" height="80" as="geometry" />
        </mxCell>
        <mxCell id="HbMG0yRE9k60iJRPw7qJ-94" style="edgeStyle=orthogonalEdgeStyle;rounded=0;orthogonalLoop=1;jettySize=auto;html=1;endArrow=none;endFill=0;fontStyle=1;fontSize=22;" edge="1" parent="1" source="HbMG0yRE9k60iJRPw7qJ-95" target="HbMG0yRE9k60iJRPw7qJ-81">
          <mxGeometry relative="1" as="geometry" />
        </mxCell>
        <mxCell id="HbMG0yRE9k60iJRPw7qJ-95" value="9" style="ellipse;whiteSpace=wrap;html=1;aspect=fixed;fontStyle=1;fontSize=22;fillColor=#dae8fc;strokeColor=#6c8ebf;" vertex="1" parent="1">
          <mxGeometry x="1220" y="240" width="80" height="80" as="geometry" />
        </mxCell>
        <mxCell id="HbMG0yRE9k60iJRPw7qJ-96" style="edgeStyle=orthogonalEdgeStyle;rounded=0;orthogonalLoop=1;jettySize=auto;html=1;entryX=0.5;entryY=0;entryDx=0;entryDy=0;endArrow=none;endFill=0;fontStyle=1;fontSize=22;" edge="1" parent="1" source="HbMG0yRE9k60iJRPw7qJ-97" target="HbMG0yRE9k60iJRPw7qJ-112">
          <mxGeometry relative="1" as="geometry" />
        </mxCell>
        <mxCell id="HbMG0yRE9k60iJRPw7qJ-97" value="10" style="ellipse;whiteSpace=wrap;html=1;aspect=fixed;fontStyle=1;fontSize=22;fillColor=#dae8fc;strokeColor=#6c8ebf;" vertex="1" parent="1">
          <mxGeometry x="740" y="360" width="80" height="80" as="geometry" />
        </mxCell>
        <mxCell id="HbMG0yRE9k60iJRPw7qJ-98" style="edgeStyle=orthogonalEdgeStyle;rounded=0;orthogonalLoop=1;jettySize=auto;html=1;endArrow=none;endFill=0;fontStyle=1;fontSize=22;" edge="1" parent="1" source="HbMG0yRE9k60iJRPw7qJ-100" target="HbMG0yRE9k60iJRPw7qJ-97">
          <mxGeometry relative="1" as="geometry" />
        </mxCell>
        <mxCell id="HbMG0yRE9k60iJRPw7qJ-99" style="edgeStyle=orthogonalEdgeStyle;rounded=0;orthogonalLoop=1;jettySize=auto;html=1;endArrow=none;endFill=0;fontStyle=1;fontSize=22;" edge="1" parent="1" source="HbMG0yRE9k60iJRPw7qJ-100" target="HbMG0yRE9k60iJRPw7qJ-87">
          <mxGeometry relative="1" as="geometry" />
        </mxCell>
        <mxCell id="HbMG0yRE9k60iJRPw7qJ-100" value="11" style="ellipse;whiteSpace=wrap;html=1;aspect=fixed;fontStyle=1;fontSize=22;fillColor=#dae8fc;strokeColor=#6c8ebf;" vertex="1" parent="1">
          <mxGeometry x="860" y="360" width="80" height="80" as="geometry" />
        </mxCell>
        <mxCell id="HbMG0yRE9k60iJRPw7qJ-101" style="edgeStyle=orthogonalEdgeStyle;rounded=0;orthogonalLoop=1;jettySize=auto;html=1;endArrow=none;endFill=0;fontStyle=1;fontSize=22;" edge="1" parent="1" source="HbMG0yRE9k60iJRPw7qJ-103" target="HbMG0yRE9k60iJRPw7qJ-100">
          <mxGeometry relative="1" as="geometry" />
        </mxCell>
        <mxCell id="HbMG0yRE9k60iJRPw7qJ-102" style="edgeStyle=orthogonalEdgeStyle;rounded=0;orthogonalLoop=1;jettySize=auto;html=1;endArrow=none;endFill=0;fontStyle=1;fontSize=22;" edge="1" parent="1" source="HbMG0yRE9k60iJRPw7qJ-103" target="HbMG0yRE9k60iJRPw7qJ-90">
          <mxGeometry relative="1" as="geometry" />
        </mxCell>
        <mxCell id="HbMG0yRE9k60iJRPw7qJ-103" value="12" style="ellipse;whiteSpace=wrap;html=1;aspect=fixed;fontStyle=1;fontSize=22;fillColor=#f8cecc;strokeColor=#b85450;" vertex="1" parent="1">
          <mxGeometry x="980" y="360" width="80" height="80" as="geometry" />
        </mxCell>
        <mxCell id="HbMG0yRE9k60iJRPw7qJ-104" style="edgeStyle=orthogonalEdgeStyle;rounded=0;orthogonalLoop=1;jettySize=auto;html=1;endArrow=none;endFill=0;fontStyle=1;fontSize=22;" edge="1" parent="1" source="HbMG0yRE9k60iJRPw7qJ-106" target="HbMG0yRE9k60iJRPw7qJ-103">
          <mxGeometry relative="1" as="geometry" />
        </mxCell>
        <mxCell id="HbMG0yRE9k60iJRPw7qJ-105" style="edgeStyle=orthogonalEdgeStyle;rounded=0;orthogonalLoop=1;jettySize=auto;html=1;endArrow=none;endFill=0;fontStyle=1;fontSize=22;" edge="1" parent="1" source="HbMG0yRE9k60iJRPw7qJ-106" target="HbMG0yRE9k60iJRPw7qJ-93">
          <mxGeometry relative="1" as="geometry" />
        </mxCell>
        <mxCell id="HbMG0yRE9k60iJRPw7qJ-106" value="13" style="ellipse;whiteSpace=wrap;html=1;aspect=fixed;fontStyle=1;fontSize=22;fillColor=#dae8fc;strokeColor=#6c8ebf;" vertex="1" parent="1">
          <mxGeometry x="1100" y="360" width="80" height="80" as="geometry" />
        </mxCell>
        <mxCell id="HbMG0yRE9k60iJRPw7qJ-107" style="edgeStyle=orthogonalEdgeStyle;rounded=0;orthogonalLoop=1;jettySize=auto;html=1;endArrow=none;endFill=0;fontStyle=1;fontSize=22;" edge="1" parent="1" source="HbMG0yRE9k60iJRPw7qJ-109" target="HbMG0yRE9k60iJRPw7qJ-95">
          <mxGeometry relative="1" as="geometry" />
        </mxCell>
        <mxCell id="HbMG0yRE9k60iJRPw7qJ-108" style="edgeStyle=orthogonalEdgeStyle;rounded=0;orthogonalLoop=1;jettySize=auto;html=1;endArrow=none;endFill=0;fontStyle=1;fontSize=22;" edge="1" parent="1" source="HbMG0yRE9k60iJRPw7qJ-109" target="HbMG0yRE9k60iJRPw7qJ-106">
          <mxGeometry relative="1" as="geometry" />
        </mxCell>
        <mxCell id="HbMG0yRE9k60iJRPw7qJ-109" value="14" style="ellipse;whiteSpace=wrap;html=1;aspect=fixed;fontStyle=1;fontSize=22;fillColor=#dae8fc;strokeColor=#6c8ebf;" vertex="1" parent="1">
          <mxGeometry x="1220" y="360" width="80" height="80" as="geometry" />
        </mxCell>
        <mxCell id="HbMG0yRE9k60iJRPw7qJ-110" style="edgeStyle=orthogonalEdgeStyle;rounded=0;orthogonalLoop=1;jettySize=auto;html=1;endArrow=none;endFill=0;fontStyle=1;fontSize=22;" edge="1" parent="1" source="HbMG0yRE9k60iJRPw7qJ-112" target="HbMG0yRE9k60iJRPw7qJ-125">
          <mxGeometry relative="1" as="geometry" />
        </mxCell>
        <mxCell id="HbMG0yRE9k60iJRPw7qJ-111" style="edgeStyle=orthogonalEdgeStyle;rounded=0;orthogonalLoop=1;jettySize=auto;html=1;endArrow=none;endFill=0;fontStyle=1;fontSize=22;" edge="1" parent="1" source="HbMG0yRE9k60iJRPw7qJ-112" target="HbMG0yRE9k60iJRPw7qJ-115">
          <mxGeometry relative="1" as="geometry" />
        </mxCell>
        <mxCell id="HbMG0yRE9k60iJRPw7qJ-112" value="15" style="ellipse;whiteSpace=wrap;html=1;aspect=fixed;fontStyle=1;fontSize=22;fillColor=#dae8fc;strokeColor=#6c8ebf;" vertex="1" parent="1">
          <mxGeometry x="740" y="480" width="80" height="80" as="geometry" />
        </mxCell>
        <mxCell id="HbMG0yRE9k60iJRPw7qJ-113" style="edgeStyle=orthogonalEdgeStyle;rounded=0;orthogonalLoop=1;jettySize=auto;html=1;endArrow=none;endFill=0;fontStyle=1;fontSize=22;" edge="1" parent="1" source="HbMG0yRE9k60iJRPw7qJ-115" target="HbMG0yRE9k60iJRPw7qJ-118">
          <mxGeometry relative="1" as="geometry" />
        </mxCell>
        <mxCell id="HbMG0yRE9k60iJRPw7qJ-114" style="edgeStyle=orthogonalEdgeStyle;rounded=0;orthogonalLoop=1;jettySize=auto;html=1;endArrow=none;endFill=0;fontStyle=1;fontSize=22;" edge="1" parent="1" source="HbMG0yRE9k60iJRPw7qJ-115" target="HbMG0yRE9k60iJRPw7qJ-100">
          <mxGeometry relative="1" as="geometry" />
        </mxCell>
        <mxCell id="HbMG0yRE9k60iJRPw7qJ-115" value="16" style="ellipse;whiteSpace=wrap;html=1;aspect=fixed;fontStyle=1;fontSize=22;fillColor=#dae8fc;strokeColor=#6c8ebf;" vertex="1" parent="1">
          <mxGeometry x="860" y="480" width="80" height="80" as="geometry" />
        </mxCell>
        <mxCell id="HbMG0yRE9k60iJRPw7qJ-116" style="edgeStyle=orthogonalEdgeStyle;rounded=0;orthogonalLoop=1;jettySize=auto;html=1;entryX=0;entryY=0.5;entryDx=0;entryDy=0;endArrow=none;endFill=0;fontStyle=1;fontSize=22;" edge="1" parent="1" source="HbMG0yRE9k60iJRPw7qJ-118" target="HbMG0yRE9k60iJRPw7qJ-121">
          <mxGeometry relative="1" as="geometry" />
        </mxCell>
        <mxCell id="HbMG0yRE9k60iJRPw7qJ-117" style="edgeStyle=orthogonalEdgeStyle;rounded=0;orthogonalLoop=1;jettySize=auto;html=1;endArrow=none;endFill=0;fontStyle=1;fontSize=22;" edge="1" parent="1" source="HbMG0yRE9k60iJRPw7qJ-118" target="HbMG0yRE9k60iJRPw7qJ-103">
          <mxGeometry relative="1" as="geometry" />
        </mxCell>
        <mxCell id="HbMG0yRE9k60iJRPw7qJ-118" value="17" style="ellipse;whiteSpace=wrap;html=1;aspect=fixed;fontStyle=1;fontSize=22;fillColor=#dae8fc;strokeColor=#6c8ebf;" vertex="1" parent="1">
          <mxGeometry x="980" y="480" width="80" height="80" as="geometry" />
        </mxCell>
        <mxCell id="HbMG0yRE9k60iJRPw7qJ-119" style="edgeStyle=orthogonalEdgeStyle;rounded=0;orthogonalLoop=1;jettySize=auto;html=1;endArrow=none;endFill=0;fontStyle=1;fontSize=22;" edge="1" parent="1" source="HbMG0yRE9k60iJRPw7qJ-121" target="HbMG0yRE9k60iJRPw7qJ-123">
          <mxGeometry relative="1" as="geometry" />
        </mxCell>
        <mxCell id="HbMG0yRE9k60iJRPw7qJ-120" style="edgeStyle=orthogonalEdgeStyle;rounded=0;orthogonalLoop=1;jettySize=auto;html=1;endArrow=none;endFill=0;fontStyle=1;fontSize=22;" edge="1" parent="1" source="HbMG0yRE9k60iJRPw7qJ-121" target="HbMG0yRE9k60iJRPw7qJ-106">
          <mxGeometry relative="1" as="geometry" />
        </mxCell>
        <mxCell id="HbMG0yRE9k60iJRPw7qJ-121" value="18" style="ellipse;whiteSpace=wrap;html=1;aspect=fixed;fontStyle=1;fontSize=22;fillColor=#dae8fc;strokeColor=#6c8ebf;" vertex="1" parent="1">
          <mxGeometry x="1100" y="480" width="80" height="80" as="geometry" />
        </mxCell>
        <mxCell id="HbMG0yRE9k60iJRPw7qJ-122" style="edgeStyle=orthogonalEdgeStyle;rounded=0;orthogonalLoop=1;jettySize=auto;html=1;endArrow=none;endFill=0;fontStyle=1;fontSize=22;" edge="1" parent="1" source="HbMG0yRE9k60iJRPw7qJ-123" target="HbMG0yRE9k60iJRPw7qJ-109">
          <mxGeometry relative="1" as="geometry" />
        </mxCell>
        <mxCell id="HbMG0yRE9k60iJRPw7qJ-123" value="19" style="ellipse;whiteSpace=wrap;html=1;aspect=fixed;fontStyle=1;fontSize=22;fillColor=#dae8fc;strokeColor=#6c8ebf;" vertex="1" parent="1">
          <mxGeometry x="1220" y="480" width="80" height="80" as="geometry" />
        </mxCell>
        <mxCell id="HbMG0yRE9k60iJRPw7qJ-124" style="edgeStyle=orthogonalEdgeStyle;rounded=0;orthogonalLoop=1;jettySize=auto;html=1;endArrow=none;endFill=0;fontStyle=1;fontSize=22;" edge="1" parent="1" source="HbMG0yRE9k60iJRPw7qJ-125" target="HbMG0yRE9k60iJRPw7qJ-128">
          <mxGeometry relative="1" as="geometry" />
        </mxCell>
        <mxCell id="HbMG0yRE9k60iJRPw7qJ-125" value="20" style="ellipse;whiteSpace=wrap;html=1;aspect=fixed;fontStyle=1;fontSize=22;fillColor=#dae8fc;strokeColor=#6c8ebf;" vertex="1" parent="1">
          <mxGeometry x="740" y="600" width="80" height="80" as="geometry" />
        </mxCell>
        <mxCell id="HbMG0yRE9k60iJRPw7qJ-126" style="edgeStyle=orthogonalEdgeStyle;rounded=0;orthogonalLoop=1;jettySize=auto;html=1;endArrow=none;endFill=0;fontStyle=1;fontSize=22;" edge="1" parent="1" source="HbMG0yRE9k60iJRPw7qJ-128" target="HbMG0yRE9k60iJRPw7qJ-131">
          <mxGeometry relative="1" as="geometry" />
        </mxCell>
        <mxCell id="HbMG0yRE9k60iJRPw7qJ-127" style="edgeStyle=orthogonalEdgeStyle;rounded=0;orthogonalLoop=1;jettySize=auto;html=1;endArrow=none;endFill=0;fontStyle=1;fontSize=22;" edge="1" parent="1" source="HbMG0yRE9k60iJRPw7qJ-128" target="HbMG0yRE9k60iJRPw7qJ-115">
          <mxGeometry relative="1" as="geometry" />
        </mxCell>
        <mxCell id="HbMG0yRE9k60iJRPw7qJ-128" value="21" style="ellipse;whiteSpace=wrap;html=1;aspect=fixed;fontStyle=1;fontSize=22;fillColor=#dae8fc;strokeColor=#6c8ebf;" vertex="1" parent="1">
          <mxGeometry x="860" y="600" width="80" height="80" as="geometry" />
        </mxCell>
        <mxCell id="HbMG0yRE9k60iJRPw7qJ-129" style="edgeStyle=orthogonalEdgeStyle;rounded=0;orthogonalLoop=1;jettySize=auto;html=1;endArrow=none;endFill=0;fontStyle=1;fontSize=22;" edge="1" parent="1" source="HbMG0yRE9k60iJRPw7qJ-131" target="HbMG0yRE9k60iJRPw7qJ-134">
          <mxGeometry relative="1" as="geometry" />
        </mxCell>
        <mxCell id="HbMG0yRE9k60iJRPw7qJ-130" style="edgeStyle=orthogonalEdgeStyle;rounded=0;orthogonalLoop=1;jettySize=auto;html=1;endArrow=none;endFill=0;fontStyle=1;fontSize=22;" edge="1" parent="1" source="HbMG0yRE9k60iJRPw7qJ-131" target="HbMG0yRE9k60iJRPw7qJ-118">
          <mxGeometry relative="1" as="geometry" />
        </mxCell>
        <mxCell id="HbMG0yRE9k60iJRPw7qJ-131" value="22" style="ellipse;whiteSpace=wrap;html=1;aspect=fixed;fontStyle=1;fontSize=22;fillColor=#dae8fc;strokeColor=#6c8ebf;" vertex="1" parent="1">
          <mxGeometry x="980" y="600" width="80" height="80" as="geometry" />
        </mxCell>
        <mxCell id="HbMG0yRE9k60iJRPw7qJ-132" style="edgeStyle=orthogonalEdgeStyle;rounded=0;orthogonalLoop=1;jettySize=auto;html=1;endArrow=none;endFill=0;fontStyle=1;fontSize=22;" edge="1" parent="1" source="HbMG0yRE9k60iJRPw7qJ-134" target="HbMG0yRE9k60iJRPw7qJ-136">
          <mxGeometry relative="1" as="geometry" />
        </mxCell>
        <mxCell id="HbMG0yRE9k60iJRPw7qJ-133" style="edgeStyle=orthogonalEdgeStyle;rounded=0;orthogonalLoop=1;jettySize=auto;html=1;endArrow=none;endFill=0;fontStyle=1;fontSize=22;" edge="1" parent="1" source="HbMG0yRE9k60iJRPw7qJ-134" target="HbMG0yRE9k60iJRPw7qJ-121">
          <mxGeometry relative="1" as="geometry" />
        </mxCell>
        <mxCell id="HbMG0yRE9k60iJRPw7qJ-134" value="23" style="ellipse;whiteSpace=wrap;html=1;aspect=fixed;fontStyle=1;fontSize=22;fillColor=#dae8fc;strokeColor=#6c8ebf;" vertex="1" parent="1">
          <mxGeometry x="1100" y="600" width="80" height="80" as="geometry" />
        </mxCell>
        <mxCell id="HbMG0yRE9k60iJRPw7qJ-135" style="edgeStyle=orthogonalEdgeStyle;rounded=0;orthogonalLoop=1;jettySize=auto;html=1;endArrow=none;endFill=0;fontStyle=1;fontSize=22;" edge="1" parent="1" source="HbMG0yRE9k60iJRPw7qJ-136" target="HbMG0yRE9k60iJRPw7qJ-123">
          <mxGeometry relative="1" as="geometry" />
        </mxCell>
        <mxCell id="HbMG0yRE9k60iJRPw7qJ-136" value="24" style="ellipse;whiteSpace=wrap;html=1;aspect=fixed;fontStyle=1;fontSize=22;fillColor=#dae8fc;strokeColor=#6c8ebf;" vertex="1" parent="1">
          <mxGeometry x="1220" y="600" width="80" height="80" as="geometry" />
        </mxCell>
        <mxCell id="HbMG0yRE9k60iJRPw7qJ-137" style="edgeStyle=orthogonalEdgeStyle;rounded=0;orthogonalLoop=1;jettySize=auto;html=1;endArrow=none;endFill=0;fontSize=22;fontStyle=1;fontColor=#FFFFFF;" edge="1" parent="1" source="HbMG0yRE9k60iJRPw7qJ-138" target="HbMG0yRE9k60iJRPw7qJ-149">
          <mxGeometry relative="1" as="geometry" />
        </mxCell>
        <mxCell id="HbMG0yRE9k60iJRPw7qJ-138" value="0.0" style="ellipse;whiteSpace=wrap;html=1;aspect=fixed;fillColor=#FF5D5D;fontSize=22;fontStyle=1;fontColor=#FFFFFF;" vertex="1" parent="1">
          <mxGeometry x="120" y="720" width="80" height="80" as="geometry" />
        </mxCell>
        <mxCell id="HbMG0yRE9k60iJRPw7qJ-139" style="edgeStyle=orthogonalEdgeStyle;rounded=0;orthogonalLoop=1;jettySize=auto;html=1;endArrow=none;endFill=0;fontSize=22;fontStyle=1;fontColor=#FFFFFF;" edge="1" parent="1" source="HbMG0yRE9k60iJRPw7qJ-140" target="HbMG0yRE9k60iJRPw7qJ-138">
          <mxGeometry relative="1" as="geometry" />
        </mxCell>
        <mxCell id="HbMG0yRE9k60iJRPw7qJ-140" value="1.0" style="ellipse;whiteSpace=wrap;html=1;aspect=fixed;fillColor=#EC5A6D;fontSize=22;fontStyle=1;fontColor=#FFFFFF;" vertex="1" parent="1">
          <mxGeometry x="240" y="720" width="80" height="80" as="geometry" />
        </mxCell>
        <mxCell id="HbMG0yRE9k60iJRPw7qJ-141" style="edgeStyle=orthogonalEdgeStyle;rounded=0;orthogonalLoop=1;jettySize=auto;html=1;endArrow=none;endFill=0;fontSize=22;fontStyle=1;fontColor=#FFFFFF;" edge="1" parent="1" source="HbMG0yRE9k60iJRPw7qJ-142" target="HbMG0yRE9k60iJRPw7qJ-140">
          <mxGeometry relative="1" as="geometry" />
        </mxCell>
        <mxCell id="HbMG0yRE9k60iJRPw7qJ-142" value="-1" style="ellipse;whiteSpace=wrap;html=1;aspect=fixed;fontSize=22;fontStyle=1;strokeColor=default;gradientColor=none;fillColor=#000000;fontColor=#FFFFFF;" vertex="1" parent="1">
          <mxGeometry x="360" y="720" width="80" height="80" as="geometry" />
        </mxCell>
        <mxCell id="HbMG0yRE9k60iJRPw7qJ-143" style="edgeStyle=orthogonalEdgeStyle;rounded=0;orthogonalLoop=1;jettySize=auto;html=1;endArrow=none;endFill=0;fontSize=22;fontStyle=1;fontColor=#FFFFFF;" edge="1" parent="1" source="HbMG0yRE9k60iJRPw7qJ-144" target="HbMG0yRE9k60iJRPw7qJ-142">
          <mxGeometry relative="1" as="geometry" />
        </mxCell>
        <mxCell id="HbMG0yRE9k60iJRPw7qJ-144" value="9.0" style="ellipse;whiteSpace=wrap;html=1;aspect=fixed;fillColor=#523FEF;fontSize=22;fontStyle=1;fontColor=#FFFFFF;" vertex="1" parent="1">
          <mxGeometry x="480" y="720" width="80" height="80" as="geometry" />
        </mxCell>
        <mxCell id="HbMG0yRE9k60iJRPw7qJ-145" style="edgeStyle=orthogonalEdgeStyle;rounded=0;orthogonalLoop=1;jettySize=auto;html=1;endArrow=none;endFill=0;fontSize=22;fontStyle=1;fontColor=#FFFFFF;" edge="1" parent="1" source="HbMG0yRE9k60iJRPw7qJ-146" target="HbMG0yRE9k60iJRPw7qJ-144">
          <mxGeometry relative="1" as="geometry" />
        </mxCell>
        <mxCell id="HbMG0yRE9k60iJRPw7qJ-146" value="10.0" style="ellipse;whiteSpace=wrap;html=1;aspect=fixed;fillColor=#3F3CFF;fontSize=22;fontStyle=1;fontColor=#FFFFFF;" vertex="1" parent="1">
          <mxGeometry x="600" y="720" width="80" height="80" as="geometry" />
        </mxCell>
        <mxCell id="HbMG0yRE9k60iJRPw7qJ-147" style="edgeStyle=orthogonalEdgeStyle;rounded=0;orthogonalLoop=1;jettySize=auto;html=1;endArrow=none;endFill=0;fontSize=22;fontStyle=1;fontColor=#FFFFFF;" edge="1" parent="1" source="HbMG0yRE9k60iJRPw7qJ-149" target="HbMG0yRE9k60iJRPw7qJ-162">
          <mxGeometry relative="1" as="geometry" />
        </mxCell>
        <mxCell id="HbMG0yRE9k60iJRPw7qJ-148" style="edgeStyle=orthogonalEdgeStyle;rounded=0;orthogonalLoop=1;jettySize=auto;html=1;endArrow=none;endFill=0;fontSize=22;fontStyle=1;fontColor=#FFFFFF;" edge="1" parent="1" source="HbMG0yRE9k60iJRPw7qJ-149" target="HbMG0yRE9k60iJRPw7qJ-152">
          <mxGeometry relative="1" as="geometry" />
        </mxCell>
        <mxCell id="HbMG0yRE9k60iJRPw7qJ-149" value="1.0" style="ellipse;whiteSpace=wrap;html=1;aspect=fixed;fillColor=#EC5A6D;fontSize=22;fontStyle=1;fontColor=#FFFFFF;" vertex="1" parent="1">
          <mxGeometry x="120" y="840" width="80" height="80" as="geometry" />
        </mxCell>
        <mxCell id="HbMG0yRE9k60iJRPw7qJ-150" style="edgeStyle=orthogonalEdgeStyle;rounded=0;orthogonalLoop=1;jettySize=auto;html=1;endArrow=none;endFill=0;fontSize=22;fontStyle=1;fontColor=#FFFFFF;" edge="1" parent="1" source="HbMG0yRE9k60iJRPw7qJ-152" target="HbMG0yRE9k60iJRPw7qJ-155">
          <mxGeometry relative="1" as="geometry" />
        </mxCell>
        <mxCell id="HbMG0yRE9k60iJRPw7qJ-151" style="edgeStyle=orthogonalEdgeStyle;rounded=0;orthogonalLoop=1;jettySize=auto;html=1;endArrow=none;endFill=0;fontSize=22;fontStyle=1;fontColor=#FFFFFF;" edge="1" parent="1" source="HbMG0yRE9k60iJRPw7qJ-152" target="HbMG0yRE9k60iJRPw7qJ-140">
          <mxGeometry relative="1" as="geometry" />
        </mxCell>
        <mxCell id="HbMG0yRE9k60iJRPw7qJ-152" value="2.0" style="ellipse;whiteSpace=wrap;html=1;aspect=fixed;fillColor=#D9567D;fontSize=22;fontStyle=1;fontColor=#FFFFFF;" vertex="1" parent="1">
          <mxGeometry x="240" y="840" width="80" height="80" as="geometry" />
        </mxCell>
        <mxCell id="HbMG0yRE9k60iJRPw7qJ-153" style="edgeStyle=orthogonalEdgeStyle;rounded=0;orthogonalLoop=1;jettySize=auto;html=1;endArrow=none;endFill=0;fontSize=22;fontStyle=1;fontColor=#FFFFFF;" edge="1" parent="1" source="HbMG0yRE9k60iJRPw7qJ-155" target="HbMG0yRE9k60iJRPw7qJ-158">
          <mxGeometry relative="1" as="geometry" />
        </mxCell>
        <mxCell id="HbMG0yRE9k60iJRPw7qJ-154" style="edgeStyle=orthogonalEdgeStyle;rounded=0;orthogonalLoop=1;jettySize=auto;html=1;endArrow=none;endFill=0;fontSize=22;fontStyle=1;strokeColor=default;fontColor=#FFFFFF;" edge="1" parent="1" source="HbMG0yRE9k60iJRPw7qJ-155" target="HbMG0yRE9k60iJRPw7qJ-142">
          <mxGeometry relative="1" as="geometry" />
        </mxCell>
        <mxCell id="HbMG0yRE9k60iJRPw7qJ-155" value="-1" style="ellipse;whiteSpace=wrap;html=1;aspect=fixed;fontSize=22;fontStyle=1;strokeColor=default;fillColor=#000000;fontColor=#FFFFFF;" vertex="1" parent="1">
          <mxGeometry x="360" y="840" width="80" height="80" as="geometry" />
        </mxCell>
        <mxCell id="HbMG0yRE9k60iJRPw7qJ-156" style="edgeStyle=orthogonalEdgeStyle;rounded=0;orthogonalLoop=1;jettySize=auto;html=1;endArrow=none;endFill=0;fontSize=22;fontStyle=1;fontColor=#FFFFFF;" edge="1" parent="1" source="HbMG0yRE9k60iJRPw7qJ-158" target="HbMG0yRE9k60iJRPw7qJ-160">
          <mxGeometry relative="1" as="geometry" />
        </mxCell>
        <mxCell id="HbMG0yRE9k60iJRPw7qJ-157" style="edgeStyle=orthogonalEdgeStyle;rounded=0;orthogonalLoop=1;jettySize=auto;html=1;endArrow=none;endFill=0;fontSize=22;fontStyle=1;fontColor=#FFFFFF;" edge="1" parent="1" source="HbMG0yRE9k60iJRPw7qJ-158" target="HbMG0yRE9k60iJRPw7qJ-144">
          <mxGeometry relative="1" as="geometry" />
        </mxCell>
        <mxCell id="HbMG0yRE9k60iJRPw7qJ-158" value="8.0" style="ellipse;whiteSpace=wrap;html=1;aspect=fixed;fillColor=#6543DF;fontSize=22;fontStyle=1;fontColor=#FFFFFF;" vertex="1" parent="1">
          <mxGeometry x="480" y="840" width="80" height="80" as="geometry" />
        </mxCell>
        <mxCell id="HbMG0yRE9k60iJRPw7qJ-159" style="edgeStyle=orthogonalEdgeStyle;rounded=0;orthogonalLoop=1;jettySize=auto;html=1;endArrow=none;endFill=0;fontSize=22;fontStyle=1;fontColor=#FFFFFF;" edge="1" parent="1" source="HbMG0yRE9k60iJRPw7qJ-160" target="HbMG0yRE9k60iJRPw7qJ-146">
          <mxGeometry relative="1" as="geometry" />
        </mxCell>
        <mxCell id="HbMG0yRE9k60iJRPw7qJ-160" value="9.0" style="ellipse;whiteSpace=wrap;html=1;aspect=fixed;fillColor=#523FEF;fontSize=22;fontStyle=1;fontColor=#FFFFFF;" vertex="1" parent="1">
          <mxGeometry x="600" y="840" width="80" height="80" as="geometry" />
        </mxCell>
        <mxCell id="HbMG0yRE9k60iJRPw7qJ-161" style="edgeStyle=orthogonalEdgeStyle;rounded=0;orthogonalLoop=1;jettySize=auto;html=1;entryX=0.5;entryY=0;entryDx=0;entryDy=0;endArrow=none;endFill=0;fontSize=22;fontStyle=1;fontColor=#FFFFFF;" edge="1" parent="1" source="HbMG0yRE9k60iJRPw7qJ-162" target="HbMG0yRE9k60iJRPw7qJ-177">
          <mxGeometry relative="1" as="geometry" />
        </mxCell>
        <mxCell id="HbMG0yRE9k60iJRPw7qJ-162" value="2.0" style="ellipse;whiteSpace=wrap;html=1;aspect=fixed;fillColor=#D9567D;fontSize=22;fontStyle=1;fontColor=#FFFFFF;" vertex="1" parent="1">
          <mxGeometry x="120" y="960" width="80" height="80" as="geometry" />
        </mxCell>
        <mxCell id="HbMG0yRE9k60iJRPw7qJ-163" style="edgeStyle=orthogonalEdgeStyle;rounded=0;orthogonalLoop=1;jettySize=auto;html=1;endArrow=none;endFill=0;fontSize=22;fontStyle=1;fontColor=#FFFFFF;" edge="1" parent="1" source="HbMG0yRE9k60iJRPw7qJ-165" target="HbMG0yRE9k60iJRPw7qJ-162">
          <mxGeometry relative="1" as="geometry" />
        </mxCell>
        <mxCell id="HbMG0yRE9k60iJRPw7qJ-164" style="edgeStyle=orthogonalEdgeStyle;rounded=0;orthogonalLoop=1;jettySize=auto;html=1;endArrow=none;endFill=0;fontSize=22;fontStyle=1;fontColor=#FFFFFF;" edge="1" parent="1" source="HbMG0yRE9k60iJRPw7qJ-165" target="HbMG0yRE9k60iJRPw7qJ-152">
          <mxGeometry relative="1" as="geometry" />
        </mxCell>
        <mxCell id="HbMG0yRE9k60iJRPw7qJ-165" value="3.0" style="ellipse;whiteSpace=wrap;html=1;aspect=fixed;fillColor=#C5538E;fontSize=22;fontStyle=1;fontColor=#FFFFFF;" vertex="1" parent="1">
          <mxGeometry x="240" y="960" width="80" height="80" as="geometry" />
        </mxCell>
        <mxCell id="HbMG0yRE9k60iJRPw7qJ-166" style="edgeStyle=orthogonalEdgeStyle;rounded=0;orthogonalLoop=1;jettySize=auto;html=1;endArrow=none;endFill=0;fontSize=22;fontStyle=1;fontColor=#FFFFFF;" edge="1" parent="1" source="HbMG0yRE9k60iJRPw7qJ-168" target="HbMG0yRE9k60iJRPw7qJ-165">
          <mxGeometry relative="1" as="geometry" />
        </mxCell>
        <mxCell id="HbMG0yRE9k60iJRPw7qJ-167" style="edgeStyle=orthogonalEdgeStyle;rounded=0;orthogonalLoop=1;jettySize=auto;html=1;endArrow=none;endFill=0;fontSize=22;fontStyle=1;strokeColor=default;fontColor=#FFFFFF;" edge="1" parent="1" source="HbMG0yRE9k60iJRPw7qJ-168" target="HbMG0yRE9k60iJRPw7qJ-155">
          <mxGeometry relative="1" as="geometry" />
        </mxCell>
        <mxCell id="HbMG0yRE9k60iJRPw7qJ-168" value="-1" style="ellipse;whiteSpace=wrap;html=1;aspect=fixed;fontSize=22;fontStyle=1;strokeColor=default;fillColor=#000000;fontColor=#FFFFFF;" vertex="1" parent="1">
          <mxGeometry x="360" y="960" width="80" height="80" as="geometry" />
        </mxCell>
        <mxCell id="HbMG0yRE9k60iJRPw7qJ-169" style="edgeStyle=orthogonalEdgeStyle;rounded=0;orthogonalLoop=1;jettySize=auto;html=1;endArrow=none;endFill=0;fontSize=22;fontStyle=1;fontColor=#FFFFFF;" edge="1" parent="1" source="HbMG0yRE9k60iJRPw7qJ-171" target="HbMG0yRE9k60iJRPw7qJ-168">
          <mxGeometry relative="1" as="geometry" />
        </mxCell>
        <mxCell id="HbMG0yRE9k60iJRPw7qJ-170" style="edgeStyle=orthogonalEdgeStyle;rounded=0;orthogonalLoop=1;jettySize=auto;html=1;endArrow=none;endFill=0;fontSize=22;fontStyle=1;fontColor=#FFFFFF;" edge="1" parent="1" source="HbMG0yRE9k60iJRPw7qJ-171" target="HbMG0yRE9k60iJRPw7qJ-158">
          <mxGeometry relative="1" as="geometry" />
        </mxCell>
        <mxCell id="HbMG0yRE9k60iJRPw7qJ-171" value="7.0" style="ellipse;whiteSpace=wrap;html=1;aspect=fixed;fillColor=#7946CE;fontSize=22;fontStyle=1;fontColor=#FFFFFF;" vertex="1" parent="1">
          <mxGeometry x="480" y="960" width="80" height="80" as="geometry" />
        </mxCell>
        <mxCell id="HbMG0yRE9k60iJRPw7qJ-172" style="edgeStyle=orthogonalEdgeStyle;rounded=0;orthogonalLoop=1;jettySize=auto;html=1;endArrow=none;endFill=0;fontSize=22;fontStyle=1;fontColor=#FFFFFF;" edge="1" parent="1" source="HbMG0yRE9k60iJRPw7qJ-174" target="HbMG0yRE9k60iJRPw7qJ-160">
          <mxGeometry relative="1" as="geometry" />
        </mxCell>
        <mxCell id="HbMG0yRE9k60iJRPw7qJ-173" style="edgeStyle=orthogonalEdgeStyle;rounded=0;orthogonalLoop=1;jettySize=auto;html=1;endArrow=none;endFill=0;fontSize=22;fontStyle=1;fontColor=#FFFFFF;" edge="1" parent="1" source="HbMG0yRE9k60iJRPw7qJ-174" target="HbMG0yRE9k60iJRPw7qJ-171">
          <mxGeometry relative="1" as="geometry" />
        </mxCell>
        <mxCell id="HbMG0yRE9k60iJRPw7qJ-174" value="8.0" style="ellipse;whiteSpace=wrap;html=1;aspect=fixed;fillColor=#6543DF;fontSize=22;fontStyle=1;fontColor=#FFFFFF;" vertex="1" parent="1">
          <mxGeometry x="600" y="960" width="80" height="80" as="geometry" />
        </mxCell>
        <mxCell id="HbMG0yRE9k60iJRPw7qJ-175" style="edgeStyle=orthogonalEdgeStyle;rounded=0;orthogonalLoop=1;jettySize=auto;html=1;endArrow=none;endFill=0;fontSize=22;fontStyle=1;fontColor=#FFFFFF;" edge="1" parent="1" source="HbMG0yRE9k60iJRPw7qJ-177" target="HbMG0yRE9k60iJRPw7qJ-190">
          <mxGeometry relative="1" as="geometry" />
        </mxCell>
        <mxCell id="HbMG0yRE9k60iJRPw7qJ-176" style="edgeStyle=orthogonalEdgeStyle;rounded=0;orthogonalLoop=1;jettySize=auto;html=1;endArrow=none;endFill=0;fontSize=22;fontStyle=1;fontColor=#FFFFFF;" edge="1" parent="1" source="HbMG0yRE9k60iJRPw7qJ-177" target="HbMG0yRE9k60iJRPw7qJ-180">
          <mxGeometry relative="1" as="geometry" />
        </mxCell>
        <mxCell id="HbMG0yRE9k60iJRPw7qJ-177" value="3.0" style="ellipse;whiteSpace=wrap;html=1;aspect=fixed;fillColor=#C5538E;fontSize=22;fontStyle=1;fontColor=#FFFFFF;" vertex="1" parent="1">
          <mxGeometry x="120" y="1080" width="80" height="80" as="geometry" />
        </mxCell>
        <mxCell id="HbMG0yRE9k60iJRPw7qJ-178" style="edgeStyle=orthogonalEdgeStyle;rounded=0;orthogonalLoop=1;jettySize=auto;html=1;endArrow=none;endFill=0;fontSize=22;fontStyle=1;fontColor=#FFFFFF;" edge="1" parent="1" source="HbMG0yRE9k60iJRPw7qJ-180" target="HbMG0yRE9k60iJRPw7qJ-183">
          <mxGeometry relative="1" as="geometry" />
        </mxCell>
        <mxCell id="HbMG0yRE9k60iJRPw7qJ-179" style="edgeStyle=orthogonalEdgeStyle;rounded=0;orthogonalLoop=1;jettySize=auto;html=1;endArrow=none;endFill=0;fontSize=22;fontStyle=1;fontColor=#FFFFFF;" edge="1" parent="1" source="HbMG0yRE9k60iJRPw7qJ-180" target="HbMG0yRE9k60iJRPw7qJ-165">
          <mxGeometry relative="1" as="geometry" />
        </mxCell>
        <mxCell id="HbMG0yRE9k60iJRPw7qJ-180" value="4.0" style="ellipse;whiteSpace=wrap;html=1;aspect=fixed;fillColor=#B2509E;fontSize=22;fontStyle=1;fontColor=#FFFFFF;" vertex="1" parent="1">
          <mxGeometry x="240" y="1080" width="80" height="80" as="geometry" />
        </mxCell>
        <mxCell id="HbMG0yRE9k60iJRPw7qJ-181" style="edgeStyle=orthogonalEdgeStyle;rounded=0;orthogonalLoop=1;jettySize=auto;html=1;entryX=0;entryY=0.5;entryDx=0;entryDy=0;endArrow=none;endFill=0;fontSize=22;fontStyle=1;fontColor=#FFFFFF;" edge="1" parent="1" source="HbMG0yRE9k60iJRPw7qJ-183" target="HbMG0yRE9k60iJRPw7qJ-186">
          <mxGeometry relative="1" as="geometry" />
        </mxCell>
        <mxCell id="HbMG0yRE9k60iJRPw7qJ-182" style="edgeStyle=orthogonalEdgeStyle;rounded=0;orthogonalLoop=1;jettySize=auto;html=1;endArrow=none;endFill=0;fontSize=22;fontStyle=1;fontColor=#FFFFFF;" edge="1" parent="1" source="HbMG0yRE9k60iJRPw7qJ-183" target="HbMG0yRE9k60iJRPw7qJ-168">
          <mxGeometry relative="1" as="geometry" />
        </mxCell>
        <mxCell id="HbMG0yRE9k60iJRPw7qJ-183" value="5.0" style="ellipse;whiteSpace=wrap;html=1;aspect=fixed;fillColor=#9F4DAE;fontSize=22;fontStyle=1;fontColor=#FFFFFF;" vertex="1" parent="1">
          <mxGeometry x="360" y="1080" width="80" height="80" as="geometry" />
        </mxCell>
        <mxCell id="HbMG0yRE9k60iJRPw7qJ-184" style="edgeStyle=orthogonalEdgeStyle;rounded=0;orthogonalLoop=1;jettySize=auto;html=1;endArrow=none;endFill=0;fontSize=22;fontStyle=1;fontColor=#FFFFFF;" edge="1" parent="1" source="HbMG0yRE9k60iJRPw7qJ-186" target="HbMG0yRE9k60iJRPw7qJ-188">
          <mxGeometry relative="1" as="geometry" />
        </mxCell>
        <mxCell id="HbMG0yRE9k60iJRPw7qJ-185" style="edgeStyle=orthogonalEdgeStyle;rounded=0;orthogonalLoop=1;jettySize=auto;html=1;endArrow=none;endFill=0;fontSize=22;fontStyle=1;fontColor=#FFFFFF;" edge="1" parent="1" source="HbMG0yRE9k60iJRPw7qJ-186" target="HbMG0yRE9k60iJRPw7qJ-171">
          <mxGeometry relative="1" as="geometry" />
        </mxCell>
        <mxCell id="HbMG0yRE9k60iJRPw7qJ-186" value="6.0" style="ellipse;whiteSpace=wrap;html=1;aspect=fixed;fillColor=#8C49BE;fontSize=22;fontStyle=1;fontColor=#FFFFFF;" vertex="1" parent="1">
          <mxGeometry x="480" y="1080" width="80" height="80" as="geometry" />
        </mxCell>
        <mxCell id="HbMG0yRE9k60iJRPw7qJ-187" style="edgeStyle=orthogonalEdgeStyle;rounded=0;orthogonalLoop=1;jettySize=auto;html=1;endArrow=none;endFill=0;fontSize=22;fontStyle=1;fontColor=#FFFFFF;" edge="1" parent="1" source="HbMG0yRE9k60iJRPw7qJ-188" target="HbMG0yRE9k60iJRPw7qJ-174">
          <mxGeometry relative="1" as="geometry" />
        </mxCell>
        <mxCell id="HbMG0yRE9k60iJRPw7qJ-188" value="7.0" style="ellipse;whiteSpace=wrap;html=1;aspect=fixed;fillColor=#7946CE;fontSize=22;fontStyle=1;fontColor=#FFFFFF;" vertex="1" parent="1">
          <mxGeometry x="600" y="1080" width="80" height="80" as="geometry" />
        </mxCell>
        <mxCell id="HbMG0yRE9k60iJRPw7qJ-189" style="edgeStyle=orthogonalEdgeStyle;rounded=0;orthogonalLoop=1;jettySize=auto;html=1;endArrow=none;endFill=0;fontSize=22;fontStyle=1;fontColor=#FFFFFF;" edge="1" parent="1" source="HbMG0yRE9k60iJRPw7qJ-190" target="HbMG0yRE9k60iJRPw7qJ-193">
          <mxGeometry relative="1" as="geometry" />
        </mxCell>
        <mxCell id="HbMG0yRE9k60iJRPw7qJ-190" value="4.0" style="ellipse;whiteSpace=wrap;html=1;aspect=fixed;fillColor=#B2509E;fontSize=22;fontStyle=1;fontColor=#FFFFFF;" vertex="1" parent="1">
          <mxGeometry x="120" y="1200" width="80" height="80" as="geometry" />
        </mxCell>
        <mxCell id="HbMG0yRE9k60iJRPw7qJ-191" style="edgeStyle=orthogonalEdgeStyle;rounded=0;orthogonalLoop=1;jettySize=auto;html=1;endArrow=none;endFill=0;fontSize=22;fontStyle=1;fontColor=#FFFFFF;" edge="1" parent="1" source="HbMG0yRE9k60iJRPw7qJ-193" target="HbMG0yRE9k60iJRPw7qJ-196">
          <mxGeometry relative="1" as="geometry" />
        </mxCell>
        <mxCell id="HbMG0yRE9k60iJRPw7qJ-192" style="edgeStyle=orthogonalEdgeStyle;rounded=0;orthogonalLoop=1;jettySize=auto;html=1;endArrow=none;endFill=0;fontSize=22;fontStyle=1;fontColor=#FFFFFF;" edge="1" parent="1" source="HbMG0yRE9k60iJRPw7qJ-193" target="HbMG0yRE9k60iJRPw7qJ-180">
          <mxGeometry relative="1" as="geometry" />
        </mxCell>
        <mxCell id="HbMG0yRE9k60iJRPw7qJ-193" value="5.0" style="ellipse;whiteSpace=wrap;html=1;aspect=fixed;fillColor=#9F4DAE;fontSize=22;fontStyle=1;fontColor=#FFFFFF;" vertex="1" parent="1">
          <mxGeometry x="240" y="1200" width="80" height="80" as="geometry" />
        </mxCell>
        <mxCell id="HbMG0yRE9k60iJRPw7qJ-194" style="edgeStyle=orthogonalEdgeStyle;rounded=0;orthogonalLoop=1;jettySize=auto;html=1;endArrow=none;endFill=0;fontSize=22;fontStyle=1;fontColor=#FFFFFF;" edge="1" parent="1" source="HbMG0yRE9k60iJRPw7qJ-196" target="HbMG0yRE9k60iJRPw7qJ-199">
          <mxGeometry relative="1" as="geometry" />
        </mxCell>
        <mxCell id="HbMG0yRE9k60iJRPw7qJ-195" style="edgeStyle=orthogonalEdgeStyle;rounded=0;orthogonalLoop=1;jettySize=auto;html=1;endArrow=none;endFill=0;fontSize=22;fontStyle=1;fontColor=#FFFFFF;" edge="1" parent="1" source="HbMG0yRE9k60iJRPw7qJ-196" target="HbMG0yRE9k60iJRPw7qJ-183">
          <mxGeometry relative="1" as="geometry" />
        </mxCell>
        <mxCell id="HbMG0yRE9k60iJRPw7qJ-196" value="6.0" style="ellipse;whiteSpace=wrap;html=1;aspect=fixed;fillColor=#8C49BE;fontSize=22;fontStyle=1;fontColor=#FFFFFF;" vertex="1" parent="1">
          <mxGeometry x="360" y="1200" width="80" height="80" as="geometry" />
        </mxCell>
        <mxCell id="HbMG0yRE9k60iJRPw7qJ-197" style="edgeStyle=orthogonalEdgeStyle;rounded=0;orthogonalLoop=1;jettySize=auto;html=1;endArrow=none;endFill=0;fontSize=22;fontStyle=1;fontColor=#FFFFFF;" edge="1" parent="1" source="HbMG0yRE9k60iJRPw7qJ-199" target="HbMG0yRE9k60iJRPw7qJ-201">
          <mxGeometry relative="1" as="geometry" />
        </mxCell>
        <mxCell id="HbMG0yRE9k60iJRPw7qJ-198" style="edgeStyle=orthogonalEdgeStyle;rounded=0;orthogonalLoop=1;jettySize=auto;html=1;endArrow=none;endFill=0;fontSize=22;fontStyle=1;fontColor=#FFFFFF;" edge="1" parent="1" source="HbMG0yRE9k60iJRPw7qJ-199" target="HbMG0yRE9k60iJRPw7qJ-186">
          <mxGeometry relative="1" as="geometry" />
        </mxCell>
        <mxCell id="HbMG0yRE9k60iJRPw7qJ-199" value="7.0" style="ellipse;whiteSpace=wrap;html=1;aspect=fixed;fillColor=#7946CE;fontSize=22;fontStyle=1;fontColor=#FFFFFF;" vertex="1" parent="1">
          <mxGeometry x="480" y="1200" width="80" height="80" as="geometry" />
        </mxCell>
        <mxCell id="HbMG0yRE9k60iJRPw7qJ-200" style="edgeStyle=orthogonalEdgeStyle;rounded=0;orthogonalLoop=1;jettySize=auto;html=1;endArrow=none;endFill=0;fontSize=22;fontStyle=1;fontColor=#FFFFFF;" edge="1" parent="1" source="HbMG0yRE9k60iJRPw7qJ-201" target="HbMG0yRE9k60iJRPw7qJ-188">
          <mxGeometry relative="1" as="geometry" />
        </mxCell>
        <mxCell id="HbMG0yRE9k60iJRPw7qJ-201" value="8.0" style="ellipse;whiteSpace=wrap;html=1;aspect=fixed;fillColor=#6543DF;fontSize=22;fontStyle=1;fontColor=#FFFFFF;" vertex="1" parent="1">
          <mxGeometry x="600" y="1200" width="80" height="80" as="geometry" />
        </mxCell>
        <mxCell id="HbMG0yRE9k60iJRPw7qJ-203" value="" style="rounded=0;whiteSpace=wrap;html=1;fillColor=#d5e8d4;strokeColor=#82b366;" vertex="1" parent="1">
          <mxGeometry x="1320" y="120" width="40" height="40" as="geometry" />
        </mxCell>
        <mxCell id="HbMG0yRE9k60iJRPw7qJ-204" value="" style="rounded=0;whiteSpace=wrap;html=1;fillColor=#f8cecc;strokeColor=#b85450;" vertex="1" parent="1">
          <mxGeometry x="1320" y="180" width="40" height="40" as="geometry" />
        </mxCell>
        <mxCell id="HbMG0yRE9k60iJRPw7qJ-206" value="SOURCE" style="text;html=1;strokeColor=none;fillColor=none;align=left;verticalAlign=middle;whiteSpace=wrap;rounded=0;fontStyle=1;fontSize=22;" vertex="1" parent="1">
          <mxGeometry x="1370" y="125" width="120" height="30" as="geometry" />
        </mxCell>
        <mxCell id="HbMG0yRE9k60iJRPw7qJ-207" value="OBSTACLE" style="text;html=1;strokeColor=none;fillColor=none;align=left;verticalAlign=middle;whiteSpace=wrap;rounded=0;fontStyle=1;fontSize=22;" vertex="1" parent="1">
          <mxGeometry x="1370" y="185" width="130" height="30" as="geometry" />
        </mxCell>
      </root>
    </mxGraphModel>
  </diagram>
</mxfile>
